<svg width="17" height="16" viewBox="0 0 17 16" fill="none" xmlns="http://www.w3.org/2000/svg">
<rect width="17" height="16" fill="#E5E5E5"/>
<g clip-path="url(#clip0)">
<rect width="1440" height="1060" transform="translate(-405 -614)" fill="#1D1B22"/>
<g clip-path="url(#clip1)">
<rect x="-245" y="-274" width="298" height="324" rx="10" fill="#333339" stroke="#2A2B32" stroke-width="0.5" stroke-linecap="round" stroke-linejoin="round"/>
<g clip-path="url(#clip2)">
<rect x="-6.5" y="-7" width="30" height="30" rx="9" stroke="#26262E" stroke-width="2" stroke-linecap="round" stroke-linejoin="round"/>
<g clip-path="url(#clip3)">
<path d="M13.5 2H3.5C1.85 2 0.5 3.35 0.5 5V11C0.5 12.65 1.85 14 3.5 14H13.5C15.15 14 16.5 12.65 16.5 11V5C16.5 3.35 15.15 2 13.5 2ZM13.5 3C13.85 3 14.2 3.1 14.5 3.3L8.85 8.95C8.65 9.15 8.35 9.15 8.15 8.95L2.5 3.3C2.8 3.1 3.15 3 3.5 3H13.5ZM15.5 11C15.5 12.1 14.6 13 13.5 13H3.5C2.4 13 1.5 12.1 1.5 11V5C1.5 4.65 1.6 4.3 1.8 4L7.45 9.65C7.75 9.95 8.1 10.1 8.5 10.1C8.9 10.1 9.3 9.95 9.55 9.65L15.2 4C15.4 4.3 15.5 4.65 15.5 5V11Z" fill="white" fill-opacity="0.8"/>
</g>
</g>
</g>
</g>
<defs>
<clipPath id="clip0">
<rect width="1440" height="1060" fill="white" transform="translate(-405 -614)"/>
</clipPath>
<clipPath id="clip1">
<rect width="298" height="324" fill="white" transform="translate(-245 -274)"/>
</clipPath>
<clipPath id="clip2">
<rect width="28" height="28" fill="white" transform="translate(-5.5 -6)"/>
</clipPath>
<clipPath id="clip3">
<rect width="16" height="16" fill="white" transform="translate(0.5)"/>
</clipPath>
</defs>
</svg>
