<svg width="22" height="22" viewBox="0 0 22 22" fill="none" xmlns="http://www.w3.org/2000/svg">
<path id="Oval 2" opacity="0.248229" d="M16.7461 15.5075L15.9682 14.8791C15.7704 15.1239 15.6995 15.4476 15.7766 15.7527C15.8538 16.0578 16.07 16.3088 16.3604 16.4301L16.7461 15.5075ZM15.4388 16.8202L16.3598 16.4306C16.2372 16.1408 15.9854 15.9256 15.68 15.8498C15.3746 15.7739 15.0513 15.8462 14.8073 16.0449L15.4388 16.8202ZM15.6512 17.1357L14.9425 17.8412L14.9425 17.8412L15.6512 17.1357ZM19.1959 20.6966L18.4871 21.4021L19.1959 20.6966ZM20.6101 20.6998L19.9046 19.9911L19.9046 19.9911L20.6101 20.6998ZM20.6133 19.2856L19.9046 19.9911L20.6133 19.2856ZM17.0687 15.7247L16.3599 16.4302H16.3599L17.0687 15.7247ZM17.7231 9.90208C17.7231 11.7901 17.0657 13.5205 15.9682 14.8791L17.524 16.1359C18.899 14.4338 19.7231 12.263 19.7231 9.90208H17.7231ZM9.86157 2C14.1991 2 17.7231 5.53358 17.7231 9.90208H19.7231C19.7231 4.43762 15.3123 0 9.86157 0V2ZM2 9.90208C2 5.53358 5.52404 2 9.86157 2V0C4.41088 0 0 4.43762 0 9.90208H2ZM9.86157 17.8042C5.52404 17.8042 2 14.2706 2 9.90208H0C0 15.3665 4.41088 19.8042 9.86157 19.8042V17.8042ZM14.8073 16.0449C13.4558 17.1458 11.7363 17.8042 9.86157 17.8042V19.8042C12.2139 19.8042 14.3759 18.9759 16.0704 17.5956L14.8073 16.0449ZM16.3599 16.4302L16.3598 16.4306L14.5179 17.2099C14.6154 17.4403 14.7575 17.6554 14.9425 17.8412L16.3599 16.4302ZM19.9046 19.9911L16.3599 16.4302L14.9425 17.8412L18.4871 21.4021L19.9046 19.9911ZM19.9046 19.9911L18.4871 21.4021C19.2664 22.1849 20.5327 22.1878 21.3156 21.4085L19.9046 19.9911ZM19.9046 19.9911L19.9046 19.9911L21.3156 21.4085C22.0984 20.6292 22.1013 19.3629 21.322 18.5801L19.9046 19.9911ZM16.3599 16.4302L19.9046 19.9911L21.322 18.5801L17.7774 15.0193L16.3599 16.4302ZM16.3604 16.4301L16.3599 16.4302L17.7774 15.0193C17.588 14.829 17.3679 14.6836 17.1318 14.5849L16.3604 16.4301Z" fill="white"/>
</svg>
